<mxfile host="www.draw.io" modified="2019-10-24T01:35:39.592Z" agent="Mozilla/5.0 (Macintosh; Intel Mac OS X 10_14_6) AppleWebKit/605.1.15 (KHTML, like Gecko) Version/13.0.2 Safari/605.1.15" etag="a-i8rOIotn6vxjc_OspQ" version="12.1.4" type="github" pages="1">
  <diagram id="1y6D-2jD47iDJHjRBnuk" name="Page-1">
    <mxGraphModel dx="932" dy="569" grid="0" gridSize="10" guides="1" tooltips="1" connect="1" arrows="1" fold="1" page="1" pageScale="1" pageWidth="3300" pageHeight="4681" math="0" shadow="0">
      <root>
        <mxCell id="0"/>
        <mxCell id="1" parent="0"/>
        <mxCell id="w8CclLkAROoRY7GbeXvr-76" value="" style="group" parent="1" vertex="1" connectable="0">
          <mxGeometry x="771" y="187" width="81" height="54" as="geometry"/>
        </mxCell>
        <mxCell id="w8CclLkAROoRY7GbeXvr-77" value="" style="verticalLabelPosition=bottom;html=1;verticalAlign=top;align=center;strokeColor=none;fillColor=#00BEF2;shape=mxgraph.azure.user;" parent="w8CclLkAROoRY7GbeXvr-76" vertex="1">
          <mxGeometry x="10" width="40" height="40" as="geometry"/>
        </mxCell>
        <mxCell id="w8CclLkAROoRY7GbeXvr-78" value="U链外部应用用户" style="text;html=1;resizable=0;points=[];autosize=1;align=center;verticalAlign=top;spacingTop=-4;fontSize=12;" parent="w8CclLkAROoRY7GbeXvr-76" vertex="1">
          <mxGeometry x="-22" y="40" width="103" height="14" as="geometry"/>
        </mxCell>
        <mxCell id="w8CclLkAROoRY7GbeXvr-79" value="" style="points=[];aspect=fixed;html=1;align=center;shadow=0;dashed=0;image;image=img/lib/allied_telesis/computer_and_terminals/Personal_Computer.svg;strokeColor=#6881B3;fillColor=#99CCFF;fontSize=12;" parent="1" vertex="1">
          <mxGeometry x="831" y="190" width="30" height="41" as="geometry"/>
        </mxCell>
        <mxCell id="w8CclLkAROoRY7GbeXvr-84" value="" style="shadow=0;dashed=0;html=1;labelPosition=center;verticalLabelPosition=bottom;verticalAlign=top;align=center;outlineConnect=0;shape=mxgraph.veeam.3d.proxy_appliance;direction=east;" parent="1" vertex="1">
          <mxGeometry x="789" y="272" width="46" height="44.5625" as="geometry"/>
        </mxCell>
        <mxCell id="w8CclLkAROoRY7GbeXvr-85" value="" style="endArrow=none;html=1;strokeColor=#6881B3;entryX=0.5;entryY=1;entryDx=0;entryDy=0;" parent="1" source="w8CclLkAROoRY7GbeXvr-84" edge="1">
          <mxGeometry width="50" height="50" relative="1" as="geometry">
            <mxPoint x="663.5" y="359" as="sourcePoint"/>
            <mxPoint x="812" y="246" as="targetPoint"/>
          </mxGeometry>
        </mxCell>
        <mxCell id="w8CclLkAROoRY7GbeXvr-86" value="" style="endArrow=none;html=1;strokeColor=#6881B3;" parent="1" edge="1">
          <mxGeometry width="50" height="50" relative="1" as="geometry">
            <mxPoint x="811.5" y="345" as="sourcePoint"/>
            <mxPoint x="811.7803450400493" y="316.5625" as="targetPoint"/>
          </mxGeometry>
        </mxCell>
        <mxCell id="w8CclLkAROoRY7GbeXvr-87" value="&lt;font style=&quot;font-size: 11px&quot;&gt;负载均衡器&lt;/font&gt;" style="text;html=1;resizable=0;points=[];align=center;verticalAlign=middle;labelBackgroundColor=none;fontSize=19;" parent="w8CclLkAROoRY7GbeXvr-86" vertex="1" connectable="0">
          <mxGeometry x="0.7788" y="-1" relative="1" as="geometry">
            <mxPoint as="offset"/>
          </mxGeometry>
        </mxCell>
        <mxCell id="w8CclLkAROoRY7GbeXvr-88" value="" style="endArrow=none;html=1;strokeColor=#6881B3;" parent="1" edge="1">
          <mxGeometry width="50" height="50" relative="1" as="geometry">
            <mxPoint x="736" y="571" as="sourcePoint"/>
            <mxPoint x="888" y="571" as="targetPoint"/>
          </mxGeometry>
        </mxCell>
        <mxCell id="w8CclLkAROoRY7GbeXvr-89" value="区块链服务&lt;br style=&quot;font-size: 10px&quot;&gt;平台管理后台" style="text;html=1;resizable=0;points=[];autosize=1;align=center;verticalAlign=top;spacingTop=-4;fontSize=10;" parent="1" vertex="1">
          <mxGeometry x="158.5" y="704" width="82" height="24" as="geometry"/>
        </mxCell>
        <mxCell id="w8CclLkAROoRY7GbeXvr-92" value="" style="endArrow=none;html=1;strokeColor=#6881B3;" parent="1" edge="1">
          <mxGeometry width="50" height="50" relative="1" as="geometry">
            <mxPoint x="206.5" y="665" as="sourcePoint"/>
            <mxPoint x="206" y="641.9999999999998" as="targetPoint"/>
          </mxGeometry>
        </mxCell>
        <mxCell id="w8CclLkAROoRY7GbeXvr-100" value="" style="aspect=fixed;perimeter=ellipsePerimeter;html=1;align=center;shadow=0;dashed=0;spacingTop=3;image;image=img/lib/active_directory/web_server.svg;strokeColor=#6881B3;strokeWidth=1;fillColor=#99CCFF;fontSize=12;" parent="1" vertex="1">
          <mxGeometry x="195.5" y="664" width="32" height="40" as="geometry"/>
        </mxCell>
        <mxCell id="w8CclLkAROoRY7GbeXvr-102" value="" style="endArrow=none;html=1;strokeColor=#6881B3;fontSize=10;" parent="1" edge="1">
          <mxGeometry width="50" height="50" relative="1" as="geometry">
            <mxPoint x="736" y="349" as="sourcePoint"/>
            <mxPoint x="888" y="349" as="targetPoint"/>
          </mxGeometry>
        </mxCell>
        <mxCell id="w8CclLkAROoRY7GbeXvr-103" value="" style="endArrow=none;html=1;strokeColor=#6881B3;" parent="1" edge="1">
          <mxGeometry width="50" height="50" relative="1" as="geometry">
            <mxPoint x="773" y="384.4999999999998" as="sourcePoint"/>
            <mxPoint x="773" y="350.5" as="targetPoint"/>
          </mxGeometry>
        </mxCell>
        <mxCell id="w8CclLkAROoRY7GbeXvr-104" value="" style="aspect=fixed;perimeter=ellipsePerimeter;html=1;align=center;shadow=0;dashed=0;spacingTop=3;image;image=img/lib/active_directory/generic_server.svg;strokeColor=#6881B3;strokeWidth=1;fillColor=#99CCFF;fontSize=8;" parent="1" vertex="1">
          <mxGeometry x="761" y="376" width="22.4" height="40" as="geometry"/>
        </mxCell>
        <mxCell id="w8CclLkAROoRY7GbeXvr-105" value="外联前置" style="text;html=1;resizable=0;points=[];autosize=1;align=center;verticalAlign=top;spacingTop=-4;fontSize=12;" parent="1" vertex="1">
          <mxGeometry x="746" y="409.5" width="50" height="12" as="geometry"/>
        </mxCell>
        <mxCell id="w8CclLkAROoRY7GbeXvr-106" value="" style="endArrow=none;html=1;strokeColor=#6881B3;" parent="1" edge="1">
          <mxGeometry width="50" height="50" relative="1" as="geometry">
            <mxPoint x="856.5" y="383.9999999999993" as="sourcePoint"/>
            <mxPoint x="856.5" y="350" as="targetPoint"/>
          </mxGeometry>
        </mxCell>
        <mxCell id="w8CclLkAROoRY7GbeXvr-107" value="" style="aspect=fixed;perimeter=ellipsePerimeter;html=1;align=center;shadow=0;dashed=0;spacingTop=3;image;image=img/lib/active_directory/generic_server.svg;strokeColor=#6881B3;strokeWidth=1;fillColor=#99CCFF;fontSize=8;" parent="1" vertex="1">
          <mxGeometry x="844.5" y="374.5" width="22.4" height="40" as="geometry"/>
        </mxCell>
        <mxCell id="w8CclLkAROoRY7GbeXvr-108" value="外联前置" style="text;html=1;resizable=0;points=[];autosize=1;align=center;verticalAlign=top;spacingTop=-4;fontSize=12;" parent="1" vertex="1">
          <mxGeometry x="829.5" y="409" width="50" height="12" as="geometry"/>
        </mxCell>
        <mxCell id="w8CclLkAROoRY7GbeXvr-109" value="" style="endArrow=none;html=1;strokeColor=#6881B3;" parent="1" edge="1">
          <mxGeometry width="50" height="50" relative="1" as="geometry">
            <mxPoint x="771.5" y="456.49999999999955" as="sourcePoint"/>
            <mxPoint x="771.5" y="422.5" as="targetPoint"/>
          </mxGeometry>
        </mxCell>
        <mxCell id="w8CclLkAROoRY7GbeXvr-110" value="" style="endArrow=none;html=1;strokeColor=#6881B3;" parent="1" edge="1">
          <mxGeometry width="50" height="50" relative="1" as="geometry">
            <mxPoint x="857.5" y="456.4999999999998" as="sourcePoint"/>
            <mxPoint x="857.5" y="422.5000000000007" as="targetPoint"/>
          </mxGeometry>
        </mxCell>
        <mxCell id="w8CclLkAROoRY7GbeXvr-111" value="" style="endArrow=none;html=1;strokeColor=#6881B3;fontSize=10;" parent="1" edge="1">
          <mxGeometry width="50" height="50" relative="1" as="geometry">
            <mxPoint x="736" y="456.9999999999998" as="sourcePoint"/>
            <mxPoint x="888" y="456.9999999999998" as="targetPoint"/>
          </mxGeometry>
        </mxCell>
        <mxCell id="w8CclLkAROoRY7GbeXvr-112" value="" style="shadow=0;dashed=0;html=1;labelPosition=center;verticalLabelPosition=bottom;verticalAlign=top;align=center;outlineConnect=0;shape=mxgraph.veeam.3d.proxy_appliance;direction=east;" parent="1" vertex="1">
          <mxGeometry x="786.5" y="481.5" width="46" height="44.5625" as="geometry"/>
        </mxCell>
        <mxCell id="w8CclLkAROoRY7GbeXvr-113" value="" style="endArrow=none;html=1;strokeColor=#6881B3;" parent="1" source="w8CclLkAROoRY7GbeXvr-112" edge="1">
          <mxGeometry width="50" height="50" relative="1" as="geometry">
            <mxPoint x="661" y="564.5" as="sourcePoint"/>
            <mxPoint x="810" y="462" as="targetPoint"/>
          </mxGeometry>
        </mxCell>
        <mxCell id="w8CclLkAROoRY7GbeXvr-114" value="" style="endArrow=none;html=1;strokeColor=#6881B3;" parent="1" target="w8CclLkAROoRY7GbeXvr-148" edge="1">
          <mxGeometry width="50" height="50" relative="1" as="geometry">
            <mxPoint x="812" y="570" as="sourcePoint"/>
            <mxPoint x="851.2845921450153" y="560.0624999999998" as="targetPoint"/>
          </mxGeometry>
        </mxCell>
        <mxCell id="w8CclLkAROoRY7GbeXvr-115" value="互联网区U链&lt;br&gt;业务应用&lt;br&gt;服务器" style="text;html=1;resizable=0;points=[];autosize=1;align=center;verticalAlign=top;spacingTop=-4;fontSize=10;" parent="1" vertex="1">
          <mxGeometry x="744" y="632.5" width="67" height="36" as="geometry"/>
        </mxCell>
        <mxCell id="w8CclLkAROoRY7GbeXvr-117" value="" style="endArrow=none;html=1;strokeColor=#6881B3;" parent="1" edge="1">
          <mxGeometry width="50" height="50" relative="1" as="geometry">
            <mxPoint x="781" y="605.4999999999998" as="sourcePoint"/>
            <mxPoint x="781" y="573.5" as="targetPoint"/>
          </mxGeometry>
        </mxCell>
        <mxCell id="w8CclLkAROoRY7GbeXvr-118" value="" style="endArrow=none;html=1;strokeColor=#6881B3;" parent="1" edge="1">
          <mxGeometry width="50" height="50" relative="1" as="geometry">
            <mxPoint x="842" y="605.4999999999998" as="sourcePoint"/>
            <mxPoint x="842" y="573.5" as="targetPoint"/>
          </mxGeometry>
        </mxCell>
        <mxCell id="w8CclLkAROoRY7GbeXvr-119" value="" style="aspect=fixed;perimeter=ellipsePerimeter;html=1;align=center;shadow=0;dashed=0;spacingTop=3;image;image=img/lib/active_directory/web_server.svg;strokeColor=#6881B3;strokeWidth=1;fillColor=#99CCFF;fontSize=12;" parent="1" vertex="1">
          <mxGeometry x="768" y="595.5" width="32" height="40" as="geometry"/>
        </mxCell>
        <mxCell id="w8CclLkAROoRY7GbeXvr-121" value="" style="endArrow=none;html=1;strokeColor=#6881B3;" parent="1" edge="1">
          <mxGeometry width="50" height="50" relative="1" as="geometry">
            <mxPoint x="736" y="683" as="sourcePoint"/>
            <mxPoint x="888" y="683" as="targetPoint"/>
          </mxGeometry>
        </mxCell>
        <mxCell id="w8CclLkAROoRY7GbeXvr-122" value="" style="endArrow=none;html=1;strokeColor=#6881B3;" parent="1" edge="1">
          <mxGeometry width="50" height="50" relative="1" as="geometry">
            <mxPoint x="204.5" y="752" as="sourcePoint"/>
            <mxPoint x="204.5" y="729" as="targetPoint"/>
          </mxGeometry>
        </mxCell>
        <mxCell id="w8CclLkAROoRY7GbeXvr-126" value="" style="endArrow=none;html=1;strokeColor=#6881B3;" parent="1" edge="1">
          <mxGeometry width="50" height="50" relative="1" as="geometry">
            <mxPoint x="779" y="682.5000000000002" as="sourcePoint"/>
            <mxPoint x="779" y="650.5000000000005" as="targetPoint"/>
          </mxGeometry>
        </mxCell>
        <mxCell id="w8CclLkAROoRY7GbeXvr-127" value="" style="endArrow=none;html=1;strokeColor=#6881B3;" parent="1" edge="1">
          <mxGeometry width="50" height="50" relative="1" as="geometry">
            <mxPoint x="840" y="682.5000000000002" as="sourcePoint"/>
            <mxPoint x="840" y="650.5000000000005" as="targetPoint"/>
          </mxGeometry>
        </mxCell>
        <mxCell id="w8CclLkAROoRY7GbeXvr-142" value="" style="points=[];aspect=fixed;html=1;align=center;shadow=0;dashed=0;image;image=img/lib/allied_telesis/computer_and_terminals/Personal_Computer.svg;strokeColor=#6881B3;fillColor=#99CCFF;fontSize=12;" parent="1" vertex="1">
          <mxGeometry x="255" y="187" width="30" height="41" as="geometry"/>
        </mxCell>
        <mxCell id="w8CclLkAROoRY7GbeXvr-144" value="区块链服务平台用户" style="text;html=1;resizable=0;points=[];autosize=1;align=center;verticalAlign=top;spacingTop=-4;fontSize=12;" parent="1" vertex="1">
          <mxGeometry x="167" y="228" width="118" height="14" as="geometry"/>
        </mxCell>
        <mxCell id="w8CclLkAROoRY7GbeXvr-145" value="" style="verticalLabelPosition=bottom;html=1;verticalAlign=top;align=center;strokeColor=none;fillColor=#00BEF2;shape=mxgraph.azure.user;" parent="1" vertex="1">
          <mxGeometry x="204" y="187" width="40" height="40" as="geometry"/>
        </mxCell>
        <mxCell id="w8CclLkAROoRY7GbeXvr-148" value="&lt;font style=&quot;font-size: 11px&quot;&gt;负载均衡器&lt;/font&gt;" style="text;html=1;resizable=0;points=[];autosize=1;align=left;verticalAlign=top;spacingTop=-4;fontSize=19;" parent="1" vertex="1">
          <mxGeometry x="777" y="519" width="70" height="26" as="geometry"/>
        </mxCell>
        <mxCell id="8dPFxkw8Yr1xb4U3ajKG-1" value="互联网区U链&lt;br&gt;业务应用&lt;br&gt;服务器" style="text;html=1;resizable=0;points=[];autosize=1;align=center;verticalAlign=top;spacingTop=-4;fontSize=10;" parent="1" vertex="1">
          <mxGeometry x="807.5" y="632.5" width="67" height="36" as="geometry"/>
        </mxCell>
        <mxCell id="8dPFxkw8Yr1xb4U3ajKG-2" value="" style="aspect=fixed;perimeter=ellipsePerimeter;html=1;align=center;shadow=0;dashed=0;spacingTop=3;image;image=img/lib/active_directory/web_server.svg;strokeColor=#6881B3;strokeWidth=1;fillColor=#99CCFF;fontSize=12;" parent="1" vertex="1">
          <mxGeometry x="833.5" y="595.5" width="32" height="40" as="geometry"/>
        </mxCell>
        <mxCell id="8dPFxkw8Yr1xb4U3ajKG-3" value="" style="shadow=0;dashed=0;html=1;labelPosition=center;verticalLabelPosition=bottom;verticalAlign=top;align=center;outlineConnect=0;shape=mxgraph.veeam.3d.proxy_appliance;direction=east;" parent="1" vertex="1">
          <mxGeometry x="225" y="358" width="46" height="44.5625" as="geometry"/>
        </mxCell>
        <mxCell id="8dPFxkw8Yr1xb4U3ajKG-4" value="" style="endArrow=none;html=1;strokeColor=#6881B3;entryX=0.5;entryY=1;entryDx=0;entryDy=0;" parent="1" edge="1">
          <mxGeometry width="50" height="50" relative="1" as="geometry">
            <mxPoint x="248" y="270" as="sourcePoint"/>
            <mxPoint x="248" y="247" as="targetPoint"/>
          </mxGeometry>
        </mxCell>
        <mxCell id="8dPFxkw8Yr1xb4U3ajKG-5" value="" style="endArrow=none;html=1;strokeColor=#6881B3;" parent="1" edge="1">
          <mxGeometry width="50" height="50" relative="1" as="geometry">
            <mxPoint x="247.5" y="431" as="sourcePoint"/>
            <mxPoint x="247.78034504004927" y="402.5625" as="targetPoint"/>
          </mxGeometry>
        </mxCell>
        <mxCell id="8dPFxkw8Yr1xb4U3ajKG-6" value="&lt;font style=&quot;font-size: 11px&quot;&gt;负载均衡器&lt;/font&gt;" style="text;html=1;resizable=0;points=[];align=center;verticalAlign=middle;labelBackgroundColor=none;fontSize=19;" parent="8dPFxkw8Yr1xb4U3ajKG-5" vertex="1" connectable="0">
          <mxGeometry x="0.7788" y="-1" relative="1" as="geometry">
            <mxPoint as="offset"/>
          </mxGeometry>
        </mxCell>
        <mxCell id="8dPFxkw8Yr1xb4U3ajKG-7" value="" style="endArrow=none;html=1;strokeColor=#6881B3;fontSize=10;" parent="1" edge="1">
          <mxGeometry width="50" height="50" relative="1" as="geometry">
            <mxPoint x="163.5" y="642" as="sourcePoint"/>
            <mxPoint x="315.5" y="642" as="targetPoint"/>
          </mxGeometry>
        </mxCell>
        <mxCell id="8dPFxkw8Yr1xb4U3ajKG-10" value="区块链服务&lt;br style=&quot;font-size: 10px&quot;&gt;平台管理后台" style="text;html=1;resizable=0;points=[];autosize=1;align=center;verticalAlign=top;spacingTop=-4;fontSize=10;" parent="1" vertex="1">
          <mxGeometry x="239.5" y="705" width="82" height="24" as="geometry"/>
        </mxCell>
        <mxCell id="8dPFxkw8Yr1xb4U3ajKG-11" value="" style="endArrow=none;html=1;strokeColor=#6881B3;exitX=0.25;exitY=0;exitDx=0;exitDy=0;" parent="1" source="8dPFxkw8Yr1xb4U3ajKG-12" edge="1">
          <mxGeometry width="50" height="50" relative="1" as="geometry">
            <mxPoint x="274.5" y="663" as="sourcePoint"/>
            <mxPoint x="274" y="642.9999999999998" as="targetPoint"/>
          </mxGeometry>
        </mxCell>
        <mxCell id="8dPFxkw8Yr1xb4U3ajKG-12" value="" style="aspect=fixed;perimeter=ellipsePerimeter;html=1;align=center;shadow=0;dashed=0;spacingTop=3;image;image=img/lib/active_directory/web_server.svg;strokeColor=#6881B3;strokeWidth=1;fillColor=#99CCFF;fontSize=12;" parent="1" vertex="1">
          <mxGeometry x="265.5" y="665" width="32" height="40" as="geometry"/>
        </mxCell>
        <mxCell id="8dPFxkw8Yr1xb4U3ajKG-13" value="" style="endArrow=none;html=1;strokeColor=#6881B3;" parent="1" edge="1">
          <mxGeometry width="50" height="50" relative="1" as="geometry">
            <mxPoint x="274.5" y="752.0000000000005" as="sourcePoint"/>
            <mxPoint x="274.5" y="724" as="targetPoint"/>
          </mxGeometry>
        </mxCell>
        <mxCell id="8dPFxkw8Yr1xb4U3ajKG-14" value="" style="endArrow=none;html=1;strokeColor=#6881B3;fontSize=10;" parent="1" edge="1">
          <mxGeometry width="50" height="50" relative="1" as="geometry">
            <mxPoint x="163.5" y="751" as="sourcePoint"/>
            <mxPoint x="315.5" y="751" as="targetPoint"/>
          </mxGeometry>
        </mxCell>
        <mxCell id="8dPFxkw8Yr1xb4U3ajKG-17" value="" style="group" parent="1" vertex="1" connectable="0">
          <mxGeometry x="1002.5" y="195" width="81" height="54" as="geometry"/>
        </mxCell>
        <mxCell id="8dPFxkw8Yr1xb4U3ajKG-18" value="" style="verticalLabelPosition=bottom;html=1;verticalAlign=top;align=center;strokeColor=none;fillColor=#00BEF2;shape=mxgraph.azure.user;" parent="8dPFxkw8Yr1xb4U3ajKG-17" vertex="1">
          <mxGeometry x="10" width="40" height="40" as="geometry"/>
        </mxCell>
        <mxCell id="8dPFxkw8Yr1xb4U3ajKG-19" value="U链内部应用用户" style="text;html=1;resizable=0;points=[];autosize=1;align=center;verticalAlign=top;spacingTop=-4;fontSize=12;" parent="8dPFxkw8Yr1xb4U3ajKG-17" vertex="1">
          <mxGeometry x="-22" y="40" width="103" height="14" as="geometry"/>
        </mxCell>
        <mxCell id="8dPFxkw8Yr1xb4U3ajKG-20" value="" style="points=[];aspect=fixed;html=1;align=center;shadow=0;dashed=0;image;image=img/lib/allied_telesis/computer_and_terminals/Personal_Computer.svg;strokeColor=#6881B3;fillColor=#99CCFF;fontSize=12;" parent="1" vertex="1">
          <mxGeometry x="1062.5" y="198" width="30" height="41" as="geometry"/>
        </mxCell>
        <mxCell id="8dPFxkw8Yr1xb4U3ajKG-21" value="" style="shadow=0;dashed=0;html=1;labelPosition=center;verticalLabelPosition=bottom;verticalAlign=top;align=center;outlineConnect=0;shape=mxgraph.veeam.3d.proxy_appliance;direction=east;" parent="1" vertex="1">
          <mxGeometry x="1020.5" y="280" width="46" height="44.5625" as="geometry"/>
        </mxCell>
        <mxCell id="8dPFxkw8Yr1xb4U3ajKG-22" value="" style="endArrow=none;html=1;strokeColor=#6881B3;entryX=0.5;entryY=1;entryDx=0;entryDy=0;" parent="1" source="8dPFxkw8Yr1xb4U3ajKG-21" edge="1">
          <mxGeometry width="50" height="50" relative="1" as="geometry">
            <mxPoint x="895" y="367" as="sourcePoint"/>
            <mxPoint x="1043.5" y="254" as="targetPoint"/>
          </mxGeometry>
        </mxCell>
        <mxCell id="8dPFxkw8Yr1xb4U3ajKG-23" value="" style="endArrow=none;html=1;strokeColor=#6881B3;" parent="1" edge="1">
          <mxGeometry width="50" height="50" relative="1" as="geometry">
            <mxPoint x="1043" y="353" as="sourcePoint"/>
            <mxPoint x="1043.2803450400493" y="324.5625" as="targetPoint"/>
          </mxGeometry>
        </mxCell>
        <mxCell id="8dPFxkw8Yr1xb4U3ajKG-24" value="&lt;font style=&quot;font-size: 11px&quot;&gt;负载均衡器&lt;/font&gt;" style="text;html=1;resizable=0;points=[];align=center;verticalAlign=middle;labelBackgroundColor=none;fontSize=19;" parent="8dPFxkw8Yr1xb4U3ajKG-23" vertex="1" connectable="0">
          <mxGeometry x="0.7788" y="-1" relative="1" as="geometry">
            <mxPoint as="offset"/>
          </mxGeometry>
        </mxCell>
        <mxCell id="8dPFxkw8Yr1xb4U3ajKG-25" value="" style="endArrow=none;html=1;strokeColor=#6881B3;" parent="1" edge="1">
          <mxGeometry width="50" height="50" relative="1" as="geometry">
            <mxPoint x="967.5" y="353.5" as="sourcePoint"/>
            <mxPoint x="1119.5" y="353.5" as="targetPoint"/>
          </mxGeometry>
        </mxCell>
        <mxCell id="8dPFxkw8Yr1xb4U3ajKG-40" value="" style="endArrow=none;html=1;strokeColor=#6881B3;" parent="1" edge="1">
          <mxGeometry width="50" height="50" relative="1" as="geometry">
            <mxPoint x="1005" y="385.4999999999998" as="sourcePoint"/>
            <mxPoint x="1005" y="353.5" as="targetPoint"/>
          </mxGeometry>
        </mxCell>
        <mxCell id="8dPFxkw8Yr1xb4U3ajKG-41" value="" style="endArrow=none;html=1;strokeColor=#6881B3;" parent="1" edge="1">
          <mxGeometry width="50" height="50" relative="1" as="geometry">
            <mxPoint x="1081.5" y="387.9999999999998" as="sourcePoint"/>
            <mxPoint x="1081.5" y="356" as="targetPoint"/>
          </mxGeometry>
        </mxCell>
        <mxCell id="8dPFxkw8Yr1xb4U3ajKG-42" value="" style="aspect=fixed;perimeter=ellipsePerimeter;html=1;align=center;shadow=0;dashed=0;spacingTop=3;image;image=img/lib/active_directory/web_server.svg;strokeColor=#6881B3;strokeWidth=1;fillColor=#99CCFF;fontSize=12;" parent="1" vertex="1">
          <mxGeometry x="992" y="376.5" width="32" height="40" as="geometry"/>
        </mxCell>
        <mxCell id="8dPFxkw8Yr1xb4U3ajKG-43" value="" style="endArrow=none;html=1;strokeColor=#6881B3;" parent="1" edge="1">
          <mxGeometry width="50" height="50" relative="1" as="geometry">
            <mxPoint x="967.5" y="458.5" as="sourcePoint"/>
            <mxPoint x="1119.5" y="458.5" as="targetPoint"/>
          </mxGeometry>
        </mxCell>
        <mxCell id="8dPFxkw8Yr1xb4U3ajKG-44" value="" style="endArrow=none;html=1;strokeColor=#6881B3;" parent="1" edge="1">
          <mxGeometry width="50" height="50" relative="1" as="geometry">
            <mxPoint x="1003" y="455.5000000000002" as="sourcePoint"/>
            <mxPoint x="1003" y="423.50000000000045" as="targetPoint"/>
          </mxGeometry>
        </mxCell>
        <mxCell id="8dPFxkw8Yr1xb4U3ajKG-45" value="" style="endArrow=none;html=1;strokeColor=#6881B3;" parent="1" edge="1">
          <mxGeometry width="50" height="50" relative="1" as="geometry">
            <mxPoint x="1079.5" y="458.0000000000002" as="sourcePoint"/>
            <mxPoint x="1079.5" y="426.00000000000045" as="targetPoint"/>
          </mxGeometry>
        </mxCell>
        <mxCell id="8dPFxkw8Yr1xb4U3ajKG-48" value="" style="aspect=fixed;perimeter=ellipsePerimeter;html=1;align=center;shadow=0;dashed=0;spacingTop=3;image;image=img/lib/active_directory/web_server.svg;strokeColor=#6881B3;strokeWidth=1;fillColor=#99CCFF;fontSize=12;" parent="1" vertex="1">
          <mxGeometry x="1073" y="379" width="32" height="40" as="geometry"/>
        </mxCell>
        <mxCell id="8dPFxkw8Yr1xb4U3ajKG-52" value="核心区负载均衡部署结构图" style="text;html=1;resizable=0;points=[];autosize=1;align=center;verticalAlign=top;spacingTop=-4;fontSize=16;" parent="1" vertex="1">
          <mxGeometry x="955.5" y="769" width="154" height="14" as="geometry"/>
        </mxCell>
        <mxCell id="8dPFxkw8Yr1xb4U3ajKG-53" value="AG区负载均衡部署结构图" style="text;html=1;resizable=0;points=[];autosize=1;align=center;verticalAlign=top;spacingTop=-4;fontSize=16;" parent="1" vertex="1">
          <mxGeometry x="140" y="769" width="193" height="19" as="geometry"/>
        </mxCell>
        <mxCell id="8dPFxkw8Yr1xb4U3ajKG-54" value="互联网区负载均衡部署结构图" style="text;html=1;resizable=0;points=[];autosize=1;align=center;verticalAlign=top;spacingTop=-4;fontSize=16;" parent="1" vertex="1">
          <mxGeometry x="641.5" y="769" width="218" height="19" as="geometry"/>
        </mxCell>
        <mxCell id="8dPFxkw8Yr1xb4U3ajKG-39" value="核心区U链&lt;br&gt;业务应用&lt;br&gt;服务器" style="text;html=1;resizable=0;points=[];autosize=1;align=center;verticalAlign=top;spacingTop=-4;fontSize=10;fillColor=#ffffff;" parent="1" vertex="1">
          <mxGeometry x="971.5" y="414" width="57" height="36" as="geometry"/>
        </mxCell>
        <mxCell id="8dPFxkw8Yr1xb4U3ajKG-47" value="核心区U链&lt;br&gt;业务应用&lt;br&gt;服务器" style="text;html=1;resizable=0;points=[];autosize=1;align=center;verticalAlign=top;spacingTop=-4;fontSize=10;fillColor=#ffffff;" parent="1" vertex="1">
          <mxGeometry x="1052" y="415" width="57" height="36" as="geometry"/>
        </mxCell>
        <mxCell id="WIYUfJyf2-8m7_pWX5QI-1" value="" style="endArrow=none;html=1;strokeColor=#6881B3;fontSize=10;" parent="1" edge="1">
          <mxGeometry width="50" height="50" relative="1" as="geometry">
            <mxPoint x="170" y="438.5" as="sourcePoint"/>
            <mxPoint x="319" y="438.5" as="targetPoint"/>
          </mxGeometry>
        </mxCell>
        <mxCell id="WIYUfJyf2-8m7_pWX5QI-2" value="" style="endArrow=none;html=1;strokeColor=#6881B3;" parent="1" edge="1">
          <mxGeometry width="50" height="50" relative="1" as="geometry">
            <mxPoint x="189.5" y="475.4999999999998" as="sourcePoint"/>
            <mxPoint x="189.5" y="441.5" as="targetPoint"/>
          </mxGeometry>
        </mxCell>
        <mxCell id="WIYUfJyf2-8m7_pWX5QI-3" value="" style="aspect=fixed;perimeter=ellipsePerimeter;html=1;align=center;shadow=0;dashed=0;spacingTop=3;image;image=img/lib/active_directory/generic_server.svg;strokeColor=#6881B3;strokeWidth=1;fillColor=#99CCFF;fontSize=8;" parent="1" vertex="1">
          <mxGeometry x="177.5" y="462" width="22.4" height="40" as="geometry"/>
        </mxCell>
        <mxCell id="WIYUfJyf2-8m7_pWX5QI-4" value="" style="endArrow=none;html=1;strokeColor=#6881B3;" parent="1" edge="1">
          <mxGeometry width="50" height="50" relative="1" as="geometry">
            <mxPoint x="305" y="475.9999999999993" as="sourcePoint"/>
            <mxPoint x="305" y="442" as="targetPoint"/>
          </mxGeometry>
        </mxCell>
        <mxCell id="WIYUfJyf2-8m7_pWX5QI-5" value="" style="aspect=fixed;perimeter=ellipsePerimeter;html=1;align=center;shadow=0;dashed=0;spacingTop=3;image;image=img/lib/active_directory/generic_server.svg;strokeColor=#6881B3;strokeWidth=1;fillColor=#99CCFF;fontSize=8;" parent="1" vertex="1">
          <mxGeometry x="293.5" y="460.5" width="22" height="40" as="geometry"/>
        </mxCell>
        <mxCell id="WIYUfJyf2-8m7_pWX5QI-6" value="内联接口" style="text;html=1;resizable=0;points=[];autosize=1;align=center;verticalAlign=top;spacingTop=-4;fontSize=12;" parent="1" vertex="1">
          <mxGeometry x="275" y="496.5" width="58" height="12" as="geometry"/>
        </mxCell>
        <mxCell id="WIYUfJyf2-8m7_pWX5QI-7" value="" style="endArrow=none;html=1;strokeColor=#6881B3;" parent="1" edge="1">
          <mxGeometry width="50" height="50" relative="1" as="geometry">
            <mxPoint x="189.5" y="539.5" as="sourcePoint"/>
            <mxPoint x="189.5" y="512.4999999999998" as="targetPoint"/>
          </mxGeometry>
        </mxCell>
        <mxCell id="WIYUfJyf2-8m7_pWX5QI-8" value="" style="endArrow=none;html=1;strokeColor=#6881B3;" parent="1" edge="1">
          <mxGeometry width="50" height="50" relative="1" as="geometry">
            <mxPoint x="307.5" y="538.5" as="sourcePoint"/>
            <mxPoint x="307" y="512.5000000000009" as="targetPoint"/>
          </mxGeometry>
        </mxCell>
        <mxCell id="WIYUfJyf2-8m7_pWX5QI-9" value="" style="endArrow=none;html=1;strokeColor=#6881B3;fontSize=10;" parent="1" edge="1">
          <mxGeometry width="50" height="50" relative="1" as="geometry">
            <mxPoint x="173" y="538.4999999999998" as="sourcePoint"/>
            <mxPoint x="322" y="538.4999999999998" as="targetPoint"/>
          </mxGeometry>
        </mxCell>
        <mxCell id="WIYUfJyf2-8m7_pWX5QI-10" value="内联接口" style="text;html=1;resizable=0;points=[];autosize=1;align=left;verticalAlign=top;spacingTop=-4;" parent="1" vertex="1">
          <mxGeometry x="163.5" y="498.5" width="58" height="14" as="geometry"/>
        </mxCell>
        <mxCell id="WIYUfJyf2-8m7_pWX5QI-15" style="edgeStyle=orthogonalEdgeStyle;rounded=0;orthogonalLoop=1;jettySize=auto;html=1;exitX=0.5;exitY=1;exitDx=0;exitDy=0;strokeWidth=1;endArrow=none;endFill=0;strokeColor=#6881B3;" parent="1" source="WIYUfJyf2-8m7_pWX5QI-13" edge="1">
          <mxGeometry relative="1" as="geometry">
            <mxPoint x="249" y="352" as="targetPoint"/>
          </mxGeometry>
        </mxCell>
        <mxCell id="WIYUfJyf2-8m7_pWX5QI-13" value="" style="aspect=fixed;perimeter=ellipsePerimeter;html=1;align=center;shadow=0;dashed=0;spacingTop=3;image;image=img/lib/active_directory/internet_cloud.svg;fillColor=#ffffff;" parent="1" vertex="1">
          <mxGeometry x="210.5" y="275.5" width="77" height="49" as="geometry"/>
        </mxCell>
        <mxCell id="WIYUfJyf2-8m7_pWX5QI-14" value="核心区网络" style="text;html=1;resizable=0;points=[];autosize=1;align=left;verticalAlign=top;spacingTop=-4;" parent="1" vertex="1">
          <mxGeometry x="214.5" y="292" width="70" height="14" as="geometry"/>
        </mxCell>
        <mxCell id="3PM-lxMTQk_WnY_iBemM-1" value="" style="endArrow=none;html=1;dashed=1;fillColor=#ffe6cc;strokeColor=#d79b00;" parent="1" edge="1">
          <mxGeometry width="50" height="50" relative="1" as="geometry">
            <mxPoint x="665" y="705" as="sourcePoint"/>
            <mxPoint x="665" y="212" as="targetPoint"/>
          </mxGeometry>
        </mxCell>
        <mxCell id="pLK8db7hcr-_21UaBula-1" value="" style="shadow=0;dashed=0;html=1;labelPosition=center;verticalLabelPosition=bottom;verticalAlign=top;align=center;outlineConnect=0;shape=mxgraph.veeam.3d.proxy_appliance;direction=east;" parent="1" vertex="1">
          <mxGeometry x="222" y="571" width="46" height="44.5625" as="geometry"/>
        </mxCell>
        <mxCell id="pLK8db7hcr-_21UaBula-2" value="" style="endArrow=none;html=1;strokeColor=#6881B3;" parent="1" edge="1">
          <mxGeometry width="50" height="50" relative="1" as="geometry">
            <mxPoint x="244.5" y="644" as="sourcePoint"/>
            <mxPoint x="244.78034504004927" y="615.5625" as="targetPoint"/>
          </mxGeometry>
        </mxCell>
        <mxCell id="pLK8db7hcr-_21UaBula-3" value="&lt;font style=&quot;font-size: 11px&quot;&gt;负载均衡器&lt;/font&gt;" style="text;html=1;resizable=0;points=[];align=center;verticalAlign=middle;labelBackgroundColor=none;fontSize=19;" parent="pLK8db7hcr-_21UaBula-2" vertex="1" connectable="0">
          <mxGeometry x="0.7788" y="-1" relative="1" as="geometry">
            <mxPoint as="offset"/>
          </mxGeometry>
        </mxCell>
        <mxCell id="pLK8db7hcr-_21UaBula-4" style="edgeStyle=orthogonalEdgeStyle;rounded=0;orthogonalLoop=1;jettySize=auto;html=1;exitX=0.5;exitY=1;exitDx=0;exitDy=0;strokeWidth=1;endArrow=none;endFill=0;strokeColor=#6881B3;" parent="1" edge="1">
          <mxGeometry relative="1" as="geometry">
            <mxPoint x="246" y="565" as="targetPoint"/>
            <mxPoint x="246" y="538" as="sourcePoint"/>
          </mxGeometry>
        </mxCell>
        <mxCell id="w7vZR72xsimvCrFMeXYw-1" value="平台监控&lt;br&gt;服务器" style="text;html=1;resizable=0;points=[];autosize=1;align=center;verticalAlign=top;spacingTop=-4;fontSize=10;" vertex="1" parent="1">
          <mxGeometry x="450.5" y="704" width="50" height="24" as="geometry"/>
        </mxCell>
        <mxCell id="w7vZR72xsimvCrFMeXYw-2" value="" style="endArrow=none;html=1;strokeColor=#6881B3;" edge="1" parent="1">
          <mxGeometry width="50" height="50" relative="1" as="geometry">
            <mxPoint x="482.5" y="665" as="sourcePoint"/>
            <mxPoint x="482" y="641.9999999999998" as="targetPoint"/>
          </mxGeometry>
        </mxCell>
        <mxCell id="w7vZR72xsimvCrFMeXYw-3" value="" style="aspect=fixed;perimeter=ellipsePerimeter;html=1;align=center;shadow=0;dashed=0;spacingTop=3;image;image=img/lib/active_directory/web_server.svg;strokeColor=#6881B3;strokeWidth=1;fillColor=#99CCFF;fontSize=12;" vertex="1" parent="1">
          <mxGeometry x="471.5" y="664" width="32" height="40" as="geometry"/>
        </mxCell>
        <mxCell id="w7vZR72xsimvCrFMeXYw-4" value="" style="endArrow=none;html=1;strokeColor=#6881B3;" edge="1" parent="1">
          <mxGeometry width="50" height="50" relative="1" as="geometry">
            <mxPoint x="480.5" y="752" as="sourcePoint"/>
            <mxPoint x="480.5" y="729" as="targetPoint"/>
          </mxGeometry>
        </mxCell>
        <mxCell id="w7vZR72xsimvCrFMeXYw-5" value="" style="points=[];aspect=fixed;html=1;align=center;shadow=0;dashed=0;image;image=img/lib/allied_telesis/computer_and_terminals/Personal_Computer.svg;strokeColor=#6881B3;fillColor=#99CCFF;fontSize=12;" vertex="1" parent="1">
          <mxGeometry x="531" y="187" width="30" height="41" as="geometry"/>
        </mxCell>
        <mxCell id="w7vZR72xsimvCrFMeXYw-6" value="平台监控用户" style="text;html=1;resizable=0;points=[];autosize=1;align=center;verticalAlign=top;spacingTop=-4;fontSize=12;" vertex="1" parent="1">
          <mxGeometry x="461" y="228" width="82" height="14" as="geometry"/>
        </mxCell>
        <mxCell id="w7vZR72xsimvCrFMeXYw-7" value="" style="verticalLabelPosition=bottom;html=1;verticalAlign=top;align=center;strokeColor=none;fillColor=#00BEF2;shape=mxgraph.azure.user;" vertex="1" parent="1">
          <mxGeometry x="480" y="187" width="40" height="40" as="geometry"/>
        </mxCell>
        <mxCell id="w7vZR72xsimvCrFMeXYw-8" value="" style="shadow=0;dashed=0;html=1;labelPosition=center;verticalLabelPosition=bottom;verticalAlign=top;align=center;outlineConnect=0;shape=mxgraph.veeam.3d.proxy_appliance;direction=east;" vertex="1" parent="1">
          <mxGeometry x="501" y="358" width="46" height="44.5625" as="geometry"/>
        </mxCell>
        <mxCell id="w7vZR72xsimvCrFMeXYw-9" value="" style="endArrow=none;html=1;strokeColor=#6881B3;entryX=0.5;entryY=1;entryDx=0;entryDy=0;" edge="1" parent="1">
          <mxGeometry width="50" height="50" relative="1" as="geometry">
            <mxPoint x="524" y="270" as="sourcePoint"/>
            <mxPoint x="524" y="247" as="targetPoint"/>
          </mxGeometry>
        </mxCell>
        <mxCell id="w7vZR72xsimvCrFMeXYw-10" value="" style="endArrow=none;html=1;strokeColor=#6881B3;" edge="1" parent="1">
          <mxGeometry width="50" height="50" relative="1" as="geometry">
            <mxPoint x="523.5" y="431" as="sourcePoint"/>
            <mxPoint x="523.7803450400493" y="402.5625" as="targetPoint"/>
          </mxGeometry>
        </mxCell>
        <mxCell id="w7vZR72xsimvCrFMeXYw-11" value="&lt;font style=&quot;font-size: 11px&quot;&gt;负载均衡器&lt;/font&gt;" style="text;html=1;resizable=0;points=[];align=center;verticalAlign=middle;labelBackgroundColor=none;fontSize=19;" vertex="1" connectable="0" parent="w7vZR72xsimvCrFMeXYw-10">
          <mxGeometry x="0.7788" y="-1" relative="1" as="geometry">
            <mxPoint as="offset"/>
          </mxGeometry>
        </mxCell>
        <mxCell id="w7vZR72xsimvCrFMeXYw-12" value="" style="endArrow=none;html=1;strokeColor=#6881B3;fontSize=10;" edge="1" parent="1">
          <mxGeometry width="50" height="50" relative="1" as="geometry">
            <mxPoint x="439.5" y="642" as="sourcePoint"/>
            <mxPoint x="591.5" y="642" as="targetPoint"/>
          </mxGeometry>
        </mxCell>
        <mxCell id="w7vZR72xsimvCrFMeXYw-13" value="平台监控&lt;br&gt;服务器" style="text;html=1;resizable=0;points=[];autosize=1;align=center;verticalAlign=top;spacingTop=-4;fontSize=10;" vertex="1" parent="1">
          <mxGeometry x="531.5" y="705" width="50" height="24" as="geometry"/>
        </mxCell>
        <mxCell id="w7vZR72xsimvCrFMeXYw-14" value="" style="endArrow=none;html=1;strokeColor=#6881B3;exitX=0.25;exitY=0;exitDx=0;exitDy=0;" edge="1" source="w7vZR72xsimvCrFMeXYw-15" parent="1">
          <mxGeometry width="50" height="50" relative="1" as="geometry">
            <mxPoint x="550.5" y="663" as="sourcePoint"/>
            <mxPoint x="550" y="642.9999999999998" as="targetPoint"/>
          </mxGeometry>
        </mxCell>
        <mxCell id="w7vZR72xsimvCrFMeXYw-15" value="" style="aspect=fixed;perimeter=ellipsePerimeter;html=1;align=center;shadow=0;dashed=0;spacingTop=3;image;image=img/lib/active_directory/web_server.svg;strokeColor=#6881B3;strokeWidth=1;fillColor=#99CCFF;fontSize=12;" vertex="1" parent="1">
          <mxGeometry x="541.5" y="665" width="32" height="40" as="geometry"/>
        </mxCell>
        <mxCell id="w7vZR72xsimvCrFMeXYw-16" value="" style="endArrow=none;html=1;strokeColor=#6881B3;" edge="1" parent="1">
          <mxGeometry width="50" height="50" relative="1" as="geometry">
            <mxPoint x="550.5" y="752.0000000000005" as="sourcePoint"/>
            <mxPoint x="550.5" y="724" as="targetPoint"/>
          </mxGeometry>
        </mxCell>
        <mxCell id="w7vZR72xsimvCrFMeXYw-17" value="" style="endArrow=none;html=1;strokeColor=#6881B3;fontSize=10;" edge="1" parent="1">
          <mxGeometry width="50" height="50" relative="1" as="geometry">
            <mxPoint x="439.5" y="751" as="sourcePoint"/>
            <mxPoint x="591.5" y="751" as="targetPoint"/>
          </mxGeometry>
        </mxCell>
        <mxCell id="w7vZR72xsimvCrFMeXYw-18" value="AG区负载均衡部署结构图" style="text;html=1;resizable=0;points=[];autosize=1;align=center;verticalAlign=top;spacingTop=-4;fontSize=16;" vertex="1" parent="1">
          <mxGeometry x="416" y="769" width="193" height="19" as="geometry"/>
        </mxCell>
        <mxCell id="w7vZR72xsimvCrFMeXYw-19" value="" style="endArrow=none;html=1;strokeColor=#6881B3;fontSize=10;" edge="1" parent="1">
          <mxGeometry width="50" height="50" relative="1" as="geometry">
            <mxPoint x="446" y="438.5" as="sourcePoint"/>
            <mxPoint x="595" y="438.5" as="targetPoint"/>
          </mxGeometry>
        </mxCell>
        <mxCell id="w7vZR72xsimvCrFMeXYw-20" value="" style="endArrow=none;html=1;strokeColor=#6881B3;" edge="1" parent="1">
          <mxGeometry width="50" height="50" relative="1" as="geometry">
            <mxPoint x="465.5" y="475.4999999999998" as="sourcePoint"/>
            <mxPoint x="465.5" y="441.5" as="targetPoint"/>
          </mxGeometry>
        </mxCell>
        <mxCell id="w7vZR72xsimvCrFMeXYw-21" value="" style="aspect=fixed;perimeter=ellipsePerimeter;html=1;align=center;shadow=0;dashed=0;spacingTop=3;image;image=img/lib/active_directory/generic_server.svg;strokeColor=#6881B3;strokeWidth=1;fillColor=#99CCFF;fontSize=8;" vertex="1" parent="1">
          <mxGeometry x="453.5" y="462" width="22.4" height="40" as="geometry"/>
        </mxCell>
        <mxCell id="w7vZR72xsimvCrFMeXYw-22" value="" style="endArrow=none;html=1;strokeColor=#6881B3;" edge="1" parent="1">
          <mxGeometry width="50" height="50" relative="1" as="geometry">
            <mxPoint x="581" y="475.9999999999993" as="sourcePoint"/>
            <mxPoint x="581" y="442" as="targetPoint"/>
          </mxGeometry>
        </mxCell>
        <mxCell id="w7vZR72xsimvCrFMeXYw-23" value="" style="aspect=fixed;perimeter=ellipsePerimeter;html=1;align=center;shadow=0;dashed=0;spacingTop=3;image;image=img/lib/active_directory/generic_server.svg;strokeColor=#6881B3;strokeWidth=1;fillColor=#99CCFF;fontSize=8;" vertex="1" parent="1">
          <mxGeometry x="569.5" y="460.5" width="22" height="40" as="geometry"/>
        </mxCell>
        <mxCell id="w7vZR72xsimvCrFMeXYw-24" value="内联接口" style="text;html=1;resizable=0;points=[];autosize=1;align=center;verticalAlign=top;spacingTop=-4;fontSize=12;" vertex="1" parent="1">
          <mxGeometry x="551" y="496.5" width="58" height="12" as="geometry"/>
        </mxCell>
        <mxCell id="w7vZR72xsimvCrFMeXYw-25" value="" style="endArrow=none;html=1;strokeColor=#6881B3;" edge="1" parent="1">
          <mxGeometry width="50" height="50" relative="1" as="geometry">
            <mxPoint x="465.5" y="539.5" as="sourcePoint"/>
            <mxPoint x="465.5" y="512.4999999999998" as="targetPoint"/>
          </mxGeometry>
        </mxCell>
        <mxCell id="w7vZR72xsimvCrFMeXYw-26" value="" style="endArrow=none;html=1;strokeColor=#6881B3;" edge="1" parent="1">
          <mxGeometry width="50" height="50" relative="1" as="geometry">
            <mxPoint x="583.5" y="538.5" as="sourcePoint"/>
            <mxPoint x="583" y="512.5000000000009" as="targetPoint"/>
          </mxGeometry>
        </mxCell>
        <mxCell id="w7vZR72xsimvCrFMeXYw-27" value="" style="endArrow=none;html=1;strokeColor=#6881B3;fontSize=10;" edge="1" parent="1">
          <mxGeometry width="50" height="50" relative="1" as="geometry">
            <mxPoint x="449" y="538.4999999999998" as="sourcePoint"/>
            <mxPoint x="598" y="538.4999999999998" as="targetPoint"/>
          </mxGeometry>
        </mxCell>
        <mxCell id="w7vZR72xsimvCrFMeXYw-28" value="内联接口" style="text;html=1;resizable=0;points=[];autosize=1;align=left;verticalAlign=top;spacingTop=-4;" vertex="1" parent="1">
          <mxGeometry x="439.5" y="498.5" width="58" height="14" as="geometry"/>
        </mxCell>
        <mxCell id="w7vZR72xsimvCrFMeXYw-29" style="edgeStyle=orthogonalEdgeStyle;rounded=0;orthogonalLoop=1;jettySize=auto;html=1;exitX=0.5;exitY=1;exitDx=0;exitDy=0;strokeWidth=1;endArrow=none;endFill=0;strokeColor=#6881B3;" edge="1" source="w7vZR72xsimvCrFMeXYw-30" parent="1">
          <mxGeometry relative="1" as="geometry">
            <mxPoint x="525" y="352" as="targetPoint"/>
          </mxGeometry>
        </mxCell>
        <mxCell id="w7vZR72xsimvCrFMeXYw-30" value="" style="aspect=fixed;perimeter=ellipsePerimeter;html=1;align=center;shadow=0;dashed=0;spacingTop=3;image;image=img/lib/active_directory/internet_cloud.svg;fillColor=#ffffff;" vertex="1" parent="1">
          <mxGeometry x="486.5" y="275.5" width="77" height="49" as="geometry"/>
        </mxCell>
        <mxCell id="w7vZR72xsimvCrFMeXYw-31" value="核心区网络" style="text;html=1;resizable=0;points=[];autosize=1;align=left;verticalAlign=top;spacingTop=-4;" vertex="1" parent="1">
          <mxGeometry x="490.5" y="292" width="70" height="14" as="geometry"/>
        </mxCell>
        <mxCell id="w7vZR72xsimvCrFMeXYw-32" value="" style="shadow=0;dashed=0;html=1;labelPosition=center;verticalLabelPosition=bottom;verticalAlign=top;align=center;outlineConnect=0;shape=mxgraph.veeam.3d.proxy_appliance;direction=east;" vertex="1" parent="1">
          <mxGeometry x="498" y="571" width="46" height="44.5625" as="geometry"/>
        </mxCell>
        <mxCell id="w7vZR72xsimvCrFMeXYw-33" value="" style="endArrow=none;html=1;strokeColor=#6881B3;" edge="1" parent="1">
          <mxGeometry width="50" height="50" relative="1" as="geometry">
            <mxPoint x="520.5" y="644" as="sourcePoint"/>
            <mxPoint x="520.7803450400493" y="615.5625" as="targetPoint"/>
          </mxGeometry>
        </mxCell>
        <mxCell id="w7vZR72xsimvCrFMeXYw-34" value="&lt;font style=&quot;font-size: 11px&quot;&gt;负载均衡器&lt;/font&gt;" style="text;html=1;resizable=0;points=[];align=center;verticalAlign=middle;labelBackgroundColor=none;fontSize=19;" vertex="1" connectable="0" parent="w7vZR72xsimvCrFMeXYw-33">
          <mxGeometry x="0.7788" y="-1" relative="1" as="geometry">
            <mxPoint as="offset"/>
          </mxGeometry>
        </mxCell>
        <mxCell id="w7vZR72xsimvCrFMeXYw-35" style="edgeStyle=orthogonalEdgeStyle;rounded=0;orthogonalLoop=1;jettySize=auto;html=1;exitX=0.5;exitY=1;exitDx=0;exitDy=0;strokeWidth=1;endArrow=none;endFill=0;strokeColor=#6881B3;" edge="1" parent="1">
          <mxGeometry relative="1" as="geometry">
            <mxPoint x="522" y="565" as="targetPoint"/>
            <mxPoint x="522" y="538" as="sourcePoint"/>
          </mxGeometry>
        </mxCell>
      </root>
    </mxGraphModel>
  </diagram>
</mxfile>
